<svg xmlns="http://www.w3.org/2000/svg" width="208.884" height="56.394" viewBox="0 0 208.884 56.394">
  <path id="logo" d="M10.686,0a4.746,4.746,0,0,1-3.51-1.248A4.638,4.638,0,0,1,5.928-4.68V-50.388a4.9,4.9,0,0,1,1.365-3.627A4.9,4.9,0,0,1,10.92-55.38a5.006,5.006,0,0,1,3.705,1.365,4.9,4.9,0,0,1,1.365,3.627v42.12H37.908q4.68,0,4.68,4.134T37.908,0Zm60.06.7A27.166,27.166,0,0,1,56.823-2.73a22.957,22.957,0,0,1-9.087-9.828,33.1,33.1,0,0,1-3.2-14.976A33.189,33.189,0,0,1,47.7-42.471a22.693,22.693,0,0,1,9.087-9.789,27.38,27.38,0,0,1,13.962-3.432A27.166,27.166,0,0,1,84.669-52.26a22.762,22.762,0,0,1,9.048,9.789,33.189,33.189,0,0,1,3.159,14.937,33.1,33.1,0,0,1-3.2,14.976A22.957,22.957,0,0,1,84.591-2.73,27.007,27.007,0,0,1,70.746.7Zm0-8.034q7.566,0,11.817-5.226t4.251-14.976q0-9.75-4.251-14.937T70.746-47.658q-7.644,0-11.9,5.187T54.6-27.534q0,9.75,4.251,14.976T70.746-7.332ZM148.9-29.718a3.982,3.982,0,0,1,2.886,1.053A3.671,3.671,0,0,1,152.88-25.9v16.77q0,3.588-.936,5.07a6.844,6.844,0,0,1-3.822,2.418A40.278,40.278,0,0,1,140.868.078,53.325,53.325,0,0,1,132.912.7,30.7,30.7,0,0,1,118.17-2.652a22.666,22.666,0,0,1-9.555-9.711A32.419,32.419,0,0,1,105.3-27.534a32.058,32.058,0,0,1,3.315-15.015,23.144,23.144,0,0,1,9.4-9.75,29,29,0,0,1,14.352-3.393q11,0,18.018,5.928a6.077,6.077,0,0,1,1.365,1.716,4.485,4.485,0,0,1,.429,2.028,4.473,4.473,0,0,1-.936,2.886,2.811,2.811,0,0,1-2.262,1.17,4.272,4.272,0,0,1-1.56-.273,8.857,8.857,0,0,1-1.638-.9,24.827,24.827,0,0,0-6.4-3.393,21.419,21.419,0,0,0-6.708-.975q-8.5,0-12.831,5.031t-4.329,14.937q0,20.28,17.784,20.28A39.262,39.262,0,0,0,143.91-8.736V-22.542H135.1a4.25,4.25,0,0,1-2.925-.936,3.362,3.362,0,0,1-1.053-2.652,3.362,3.362,0,0,1,1.053-2.652,4.25,4.25,0,0,1,2.925-.936ZM188.682.7A27.166,27.166,0,0,1,174.759-2.73a22.957,22.957,0,0,1-9.087-9.828,33.1,33.1,0,0,1-3.2-14.976,33.189,33.189,0,0,1,3.159-14.937,22.693,22.693,0,0,1,9.087-9.789,27.38,27.38,0,0,1,13.962-3.432A27.166,27.166,0,0,1,202.6-52.26a22.762,22.762,0,0,1,9.048,9.789,33.189,33.189,0,0,1,3.159,14.937,33.1,33.1,0,0,1-3.2,14.976,22.957,22.957,0,0,1-9.087,9.828A27.007,27.007,0,0,1,188.682.7Zm0-8.034q7.566,0,11.817-5.226t4.251-14.976q0-9.75-4.251-14.937t-11.817-5.187q-7.644,0-11.9,5.187t-4.251,14.937q0,9.75,4.251,14.976T188.682-7.332Z" transform="translate(-5.928 55.692)" fill="#012dbe"/>
</svg>
